<?xml version="1.0" standalone="no"?>
<!DOCTYPE svg PUBLIC "-//W3C//DTD SVG 20010904//EN"
 "http://www.w3.org/TR/2001/REC-SVG-20010904/DTD/svg10.dtd">
<svg version="1.0" xmlns="http://www.w3.org/2000/svg"
 width="400.000000pt" height="400.000000pt" viewBox="0 0 400.000000 400.000000"
 preserveAspectRatio="xMidYMid meet">
<metadata>
Created by potrace 1.14, written by Peter Selinger 2001-2017
</metadata>
<g transform="translate(0.000000,400.000000) scale(0.100000,-0.100000)"
fill="#000000" stroke="none">
<path d="M1829 3996 c-2 -2 -30 -6 -62 -10 -31 -3 -67 -8 -80 -11 -12 -2 -35
-6 -52 -9 -250 -35 -611 -195 -845 -373 -120 -92 -275 -243 -350 -342 -14 -18
-35 -45 -46 -59 -52 -65 -131 -197 -190 -317 -102 -208 -160 -406 -194 -665
-12 -96 -4 -421 14 -520 32 -179 45 -228 95 -369 111 -311 295 -580 574 -837
44 -40 210 -158 288 -204 143 -85 400 -194 502 -214 12 -2 45 -10 72 -16 67
-15 146 -29 225 -38 128 -14 476 -6 531 12 8 3 32 7 54 10 198 25 514 152 725
290 476 312 790 796 885 1361 24 145 27 458 6 595 -63 401 -233 767 -491 1054
-203 226 -477 417 -750 524 -79 31 -193 70 -226 77 -135 29 -218 45 -259 50
-52 7 -420 16 -426 11z m-246 -1425 c4 -1 6 -85 5 -188 l-3 -187 -290 0 -290
-1 -3 -117 c-3 -117 -2 -118 20 -119 13 0 104 -1 203 -2 l179 -2 1 -165 c0
-91 -2 -175 -4 -187 -3 -23 -4 -23 -202 -23 l-199 0 -2 -237 -3 -238 -202 0
c-112 0 -203 2 -204 5 -5 26 -2 1456 3 1460 5 4 960 5 991 1z m924 0 c2 -1
-22 -46 -111 -210 -37 -68 -86 -158 -108 -200 -34 -65 -96 -179 -263 -486 -18
-33 -52 -96 -76 -140 -23 -44 -74 -138 -113 -210 -39 -71 -82 -151 -96 -177
l-25 -48 -222 0 c-123 0 -223 2 -223 5 0 3 22 44 48 92 27 49 75 138 107 198
32 61 78 145 101 187 24 43 44 79 44 81 0 2 22 44 48 93 27 49 70 130 97 179
26 50 73 137 105 195 58 107 119 221 185 345 57 109 33 100 282 98 120 -1 219
-2 220 -2z m1098 -31 c-4 -8 -53 -100 -110 -205 -56 -104 -117 -217 -135 -250
-18 -33 -45 -82 -60 -110 -33 -60 -64 -118 -205 -380 -60 -110 -120 -222 -135
-250 -15 -27 -42 -77 -60 -110 -17 -33 -43 -81 -58 -107 l-25 -48 -224 0 -224
0 67 128 c37 70 70 132 74 137 4 6 30 53 58 105 76 145 161 303 172 320 6 8
14 24 19 35 5 11 95 179 200 374 105 195 191 358 191 362 0 12 33 14 253 14
180 0 206 -2 202 -15z m-755 -318 c0 -5 -219 -432 -230 -447 -4 -5 -51 -95
-105 -200 -54 -104 -119 -230 -145 -280 -27 -49 -62 -117 -79 -150 l-32 -60
-220 0 c-120 0 -219 3 -219 7 0 4 42 83 93 175 52 93 109 195 127 228 18 33
52 94 75 135 23 41 57 102 75 135 18 33 43 78 56 100 13 22 29 51 37 65 113
206 150 272 161 283 10 10 63 13 210 13 108 1 196 -1 196 -4z"/>
</g>
</svg>
