<svg width="400" height="400" viewBox="0 0 400 400" fill="none" xmlns="http://www.w3.org/2000/svg">
<path fill-rule="evenodd" clip-rule="evenodd" d="M200 400C310.457 400 400 310.457 400 200C400 89.5431 310.457 0 200 0C89.5431 0 0 89.5431 0 200C0 310.457 89.5431 400 200 400ZM159.063 142.667H100.007H58.6667V180.372V204.186V241.891V289.519H100.007V241.891H140.362V204.186H100.007V180.372H159.063V142.667ZM285.544 177.395L225.995 291.504H181.21L244.696 177.395H285.544ZM281.607 292L361.333 144.651H316.056L236.822 292H281.607ZM251.094 142.667L171.367 290.016H126.582L205.817 142.667H251.094Z" fill="#090808"/>
</svg>
